<?xml version="1.0" standalone="no"?>
<!DOCTYPE svg PUBLIC "-//W3C//DTD SVG 20010904//EN"
 "http://www.w3.org/TR/2001/REC-SVG-20010904/DTD/svg10.dtd">
<svg version="1.0" xmlns="http://www.w3.org/2000/svg"
 width="492.000000pt" height="312.000000pt" viewBox="0 0 492.000000 312.000000"
 preserveAspectRatio="xMidYMid meet">

<g transform="translate(0.000000,312.000000) scale(0.100000,-0.100000)"
fill="#000000" stroke="none">
<path d="M2033 2415 c-59 -16 -340 -146 -513 -237 -509 -270 -742 -399 -798
-444 -23 -19 -23 -23 -28 -279 -3 -143 -5 -276 -5 -295 0 -49 24 -66 177 -129
255 -106 484 -182 561 -188 l71 -6 52 49 52 49 47 -26 c32 -18 47 -33 49 -50
6 -55 14 -70 50 -93 50 -33 322 -102 672 -171 157 -30 315 -63 352 -71 37 -9
75 -13 86 -10 22 7 229 216 427 431 183 199 354 404 500 600 65 88 139 182
164 208 52 56 130 100 169 95 22 -2 28 -9 30 -36 2 -19 -4 -44 -12 -57 -19
-29 -21 -86 -4 -103 20 -20 74 -14 106 13 42 35 55 74 50 149 -3 53 -10 73
-37 113 -67 98 -155 126 -256 80 -31 -15 -93 -53 -138 -85 -45 -32 -170 -119
-277 -192 -192 -132 -496 -353 -597 -435 l-51 -42 -84 18 c-45 10 -236 48
-423 84 -487 94 -1181 234 -1207 244 -18 7 11 31 218 182 131 97 295 215 364
264 69 49 147 106 174 127 65 51 118 78 155 78 40 0 53 -25 43 -82 -11 -63 -4
-96 24 -114 27 -18 60 -13 91 13 89 78 83 212 -14 304 -62 60 -134 72 -240 44z
m188 -58 c46 -30 79 -98 79 -162 0 -69 -18 -100 -55 -100 l-30 0 3 86 c3 69 0
90 -13 103 -28 27 -64 30 -114 9 -44 -19 -364 -243 -769 -541 l-183 -135 -82
18 c-45 10 -84 20 -86 21 -2 2 2 10 9 19 20 24 6 28 -28 8 -35 -20 -56 -11
-26 12 10 8 45 28 77 45 31 17 57 35 57 41 0 5 -2 9 -5 9 -13 0 -94 -45 -138
-77 -27 -19 -52 -31 -55 -28 -11 11 45 50 150 105 54 28 96 56 93 61 -7 11
-128 -49 -218 -108 -53 -36 -73 -44 -94 -38 -25 6 -25 7 24 40 162 109 996
542 1158 601 114 42 195 45 246 11z m1960 -413 c69 -66 88 -162 44 -227 -43
-62 -66 -39 -34 34 36 79 0 139 -83 139 -99 0 -182 -72 -339 -292 -118 -164
-231 -309 -327 -418 -102 -116 -505 -540 -513 -540 -4 0 -3 17 1 37 5 21 14
103 20 183 l12 145 36 33 c21 17 49 40 65 49 15 10 27 21 27 25 0 18 -28 6
-75 -32 -30 -24 -52 -35 -54 -28 -5 15 60 73 144 129 61 40 78 59 54 59 -12 0
-87 -49 -147 -98 -46 -36 -61 -37 -42 -2 10 18 257 211 307 238 26 15 7 28
-20 13 -12 -6 -82 -57 -155 -111 -73 -55 -134 -100 -136 -100 -2 0 -1 12 2 26
3 18 42 54 141 130 298 229 860 613 930 637 55 18 103 8 142 -29z m-3188 -339
c244 -62 440 -103 822 -170 143 -26 388 -73 545 -105 157 -32 319 -63 360 -70
109 -17 168 -38 187 -66 14 -21 15 -45 9 -162 -7 -145 -28 -322 -47 -409 -11
-48 -15 -53 -44 -59 -17 -3 -58 1 -91 9 -32 9 -165 36 -294 62 -452 89 -633
138 -677 181 -17 17 -23 35 -23 64 0 46 -21 94 -45 104 -52 20 -109 -1 -164
-58 -42 -43 -84 -53 -159 -36 -49 11 -429 154 -557 210 -90 39 -88 35 -79 195
4 77 7 193 6 258 -3 110 -2 118 15 113 10 -3 116 -30 236 -61z"/>
<path d="M823 1555 c-36 -25 -48 -79 -47 -215 1 -183 4 -187 199 -270 145 -62
250 -95 351 -111 137 -21 159 -5 197 139 56 207 56 296 2 320 -48 22 -616 152
-663 152 -10 0 -27 -7 -39 -15z m332 -90 c400 -86 375 -72 356 -208 -21 -147
-37 -198 -73 -231 -28 -26 -36 -28 -87 -23 -71 6 -380 107 -448 147 -31 18
-59 43 -69 62 -47 91 -13 331 44 314 9 -3 134 -30 277 -61z"/>
<path d="M1979 1274 c-33 -17 -44 -44 -80 -188 -33 -138 -35 -156 -14 -200 23
-48 73 -71 241 -111 369 -89 477 -103 528 -70 31 20 62 94 75 176 14 82 14
225 1 250 -22 40 -27 42 -505 123 -201 34 -218 35 -246 20z m122 -184 c21 -80
49 -174 63 -209 14 -36 24 -66 22 -69 -3 -2 -20 1 -39 7 -38 13 -60 54 -117
210 -61 170 -60 215 4 209 30 -3 30 -3 67 -148z m75 126 c0 0 13 -53 28 -116
14 -63 42 -160 61 -214 19 -55 33 -101 32 -103 -2 -1 -19 2 -38 7 -32 9 -38
17 -62 78 -48 128 -96 298 -97 345 0 15 6 17 38 11 20 -4 37 -7 38 -8z m115
-22 c4 -2 17 -48 29 -101 12 -54 40 -149 61 -210 22 -62 39 -117 39 -122 0 -4
-20 -4 -43 2 l-44 10 -36 101 c-38 106 -57 170 -81 274 l-15 64 42 -7 c23 -4
45 -9 48 -11z m110 -23 c3 -3 18 -57 33 -120 15 -63 43 -157 62 -209 19 -52
34 -96 34 -98 0 -12 -53 -1 -68 14 -29 29 -111 279 -127 385 l-7 47 33 -6 c19
-4 37 -9 40 -13z m100 -17 c4 -2 10 -20 13 -39 11 -59 54 -181 93 -267 36 -78
36 -81 18 -94 -10 -8 -29 -14 -41 -14 -19 0 -27 13 -52 78 -36 91 -59 169 -83
275 l-17 78 31 -7 c18 -3 35 -8 38 -10z m-441 -263 c12 -24 20 -45 17 -47 -2
-2 -17 1 -34 6 -26 9 -35 24 -66 103 -40 101 -42 113 -26 172 l11 39 38 -115
c21 -64 48 -135 60 -158z m545 247 c1 -2 19 -48 41 -103 40 -101 42 -124 22
-200 l-10 -40 -20 40 c-24 47 -92 235 -103 284 l-7 34 37 -6 c21 -3 38 -7 40
-9z m75 -28 c21 -21 29 -93 12 -104 -5 -3 -20 24 -35 59 -19 51 -22 65 -11 65
8 0 23 -9 34 -20z m-700 -226 c0 -10 -25 -2 -42 13 -18 17 -23 48 -11 79 5 13
12 4 30 -36 13 -29 23 -54 23 -56z"/>
</g>
</svg>
